<?xml version="1.0" encoding="UTF-8"?>
<!DOCTYPE svg PUBLIC "-//W3C//DTD SVG 1.1//EN" "http://www.w3.org/Graphics/SVG/1.1/DTD/svg11.dtd">
<svg xmlns="http://www.w3.org/2000/svg" version="1.1" width="800px" height="599px" style="shape-rendering:geometricPrecision; text-rendering:geometricPrecision; image-rendering:optimizeQuality; fill-rule:evenodd; clip-rule:evenodd" xmlns:xlink="http://www.w3.org/1999/xlink">
<g><path style="opacity:1" fill="#fefefe" d="M -0.5,-0.5 C 266.167,-0.5 532.833,-0.5 799.5,-0.5C 799.5,199.167 799.5,398.833 799.5,598.5C 532.833,598.5 266.167,598.5 -0.5,598.5C -0.5,398.833 -0.5,199.167 -0.5,-0.5 Z"/></g>
<g><path style="opacity:1" fill="#0b0b0b" d="M 269.5,255.5 C 270.167,255.5 270.833,255.5 271.5,255.5C 273.214,256.738 275.214,257.405 277.5,257.5C 278.5,257.5 279.5,257.5 280.5,257.5C 280.973,258.906 281.973,259.573 283.5,259.5C 295.156,265.152 302.823,274.152 306.5,286.5C 307.35,293.799 307.683,301.132 307.5,308.5C 307.5,308.833 307.5,309.167 307.5,309.5C 306.129,311.936 305.129,314.603 304.5,317.5C 300.196,327.469 293.196,334.803 283.5,339.5C 281.033,339.755 279.033,340.755 277.5,342.5C 276.833,342.5 276.167,342.5 275.5,342.5C 268.869,343.331 262.202,343.664 255.5,343.5C 240.393,340.401 229.726,331.734 223.5,317.5C 222.871,314.603 221.871,311.936 220.5,309.5C 219.708,303.87 219.375,298.203 219.5,292.5C 220.924,290.485 221.59,288.152 221.5,285.5C 222.055,282.904 223.055,280.571 224.5,278.5C 225.906,278.027 226.573,277.027 226.5,275.5C 230.548,269.118 235.882,264.118 242.5,260.5C 244.967,260.245 246.967,259.245 248.5,257.5C 249.167,257.5 249.833,257.5 250.5,257.5C 256.748,256.108 263.082,255.442 269.5,255.5 Z"/></g>
<g><path style="opacity:1" fill="#676767" d="M 271.5,255.5 C 273.898,255.259 275.898,255.926 277.5,257.5C 275.214,257.405 273.214,256.738 271.5,255.5 Z"/></g>
<g><path style="opacity:1" fill="#515151" d="M 269.5,255.5 C 263.082,255.442 256.748,256.108 250.5,257.5C 251.681,255.933 253.347,255.099 255.5,255C 260.352,254.185 265.019,254.352 269.5,255.5 Z"/></g>
<g><path style="opacity:1" fill="#878787" d="M 280.5,257.5 C 282.027,257.427 283.027,258.094 283.5,259.5C 281.973,259.573 280.973,258.906 280.5,257.5 Z"/></g>
<g><path style="opacity:1" fill="#5f5f5f" d="M 248.5,257.5 C 246.967,259.245 244.967,260.245 242.5,260.5C 244.033,258.755 246.033,257.755 248.5,257.5 Z"/></g>
<g><path style="opacity:1" fill="#979797" d="M 269.5,265.5 C 263.678,265.21 258.012,265.877 252.5,267.5C 253.842,266.207 255.509,265.374 257.5,265C 261.689,264.188 265.689,264.355 269.5,265.5 Z"/></g>
<g><path style="opacity:1" fill="#f1f1f1" d="M 269.5,265.5 C 270.167,265.5 270.833,265.5 271.5,265.5C 273.936,266.871 276.603,267.871 279.5,268.5C 290.426,273.766 296.759,282.432 298.5,294.5C 298.663,296.857 298.497,299.19 298,301.5C 297.61,298.896 296.776,296.562 295.5,294.5C 295.573,292.973 294.906,291.973 293.5,291.5C 289.328,284.558 283.328,279.725 275.5,277C 269.253,274.249 262.919,273.915 256.5,276C 247.282,284.895 247.282,293.895 256.5,303C 259.711,304.153 263.044,304.82 266.5,305C 270.467,307.966 270.467,310.799 266.5,313.5C 261.681,313.648 257.015,312.982 252.5,311.5C 246.203,307.942 242.036,302.609 240,295.5C 239.274,290.448 239.441,285.448 240.5,280.5C 241.906,280.027 242.573,279.027 242.5,277.5C 244.833,273.167 248.167,269.833 252.5,267.5C 258.012,265.877 263.678,265.21 269.5,265.5 Z"/></g>
<g><path style="opacity:1" fill="#656565" d="M 271.5,265.5 C 274.716,265.345 277.383,266.345 279.5,268.5C 276.603,267.871 273.936,266.871 271.5,265.5 Z"/></g>
<g><path style="opacity:1" fill="#101010" d="M 342.5,284.5 C 341.551,283.848 340.385,283.514 339,283.5C 336.992,283.307 335.492,283.974 334.5,285.5C 331.777,288.178 332.111,290.678 335.5,293C 342.499,295.828 348.832,299.662 354.5,304.5C 356.685,316.329 351.685,322.662 339.5,323.5C 337.035,323.522 334.702,323.022 332.5,322C 329.359,320.114 326.692,317.78 324.5,315C 326.034,313.132 327.867,311.632 330,310.5C 332.156,311.985 334.323,313.485 336.5,315C 343.235,316.583 346.401,314.083 346,307.5C 343.842,305.506 341.342,304.172 338.5,303.5C 338.027,302.094 337.027,301.427 335.5,301.5C 324.196,296.756 321.863,289.256 328.5,279C 338.373,273.356 347.04,274.856 354.5,283.5C 353.167,285.5 351.5,287.167 349.5,288.5C 347.275,286.89 344.941,285.557 342.5,284.5 Z"/></g>
<g><path style="opacity:1" fill="#6b6b6b" d="M 226.5,275.5 C 226.573,277.027 225.906,278.027 224.5,278.5C 224.427,276.973 225.094,275.973 226.5,275.5 Z"/></g>
<g><path style="opacity:1" fill="#747474" d="M 242.5,277.5 C 242.573,279.027 241.906,280.027 240.5,280.5C 240.427,278.973 241.094,277.973 242.5,277.5 Z"/></g>
<g><path style="opacity:1" fill="#b0b0b0" d="M 572.5,274.5 C 579.94,273.753 581.94,276.587 578.5,283C 571.441,283.464 569.441,280.631 572.5,274.5 Z"/></g>
<g><path style="opacity:1" fill="#868686" d="M 342.5,284.5 C 339.763,284.401 337.096,284.735 334.5,285.5C 335.492,283.974 336.992,283.307 339,283.5C 340.385,283.514 341.551,283.848 342.5,284.5 Z"/></g>
<g><path style="opacity:1" fill="#eeeeee" d="M 277.5,330.5 C 275.033,330.755 273.033,331.755 271.5,333.5C 270.833,333.5 270.167,333.5 269.5,333.5C 263.044,333.768 256.711,333.101 250.5,331.5C 242.188,327.855 236.188,321.855 232.5,313.5C 231.871,310.603 230.871,307.936 229.5,305.5C 229.5,304.833 229.5,304.167 229.5,303.5C 229.205,301.265 229.539,299.265 230.5,297.5C 236.56,317.365 249.893,325.865 270.5,323C 277.866,318.426 280.366,311.926 278,303.5C 274.115,297.638 268.615,294.471 261.5,294C 256.843,288.501 258.176,285.334 265.5,284.5C 284.556,288.274 291.723,299.607 287,318.5C 284.525,323.155 281.358,327.155 277.5,330.5 Z"/></g>
<g><path style="opacity:1" fill="#838383" d="M 455.5,287.5 C 451.007,287.269 446.674,287.936 442.5,289.5C 443.347,288.034 444.68,287.2 446.5,287C 449.696,286.195 452.696,286.362 455.5,287.5 Z"/></g>
<g><path style="opacity:1" fill="#0e0e0e" d="M 455.5,287.5 C 461.376,289.378 465.709,293.045 468.5,298.5C 468.5,301.5 468.5,304.5 468.5,307.5C 459.983,307.174 451.65,307.507 443.5,308.5C 443.772,311.732 445.438,313.732 448.5,314.5C 450.966,315.634 453.633,315.801 456.5,315C 457.056,314.617 457.389,314.117 457.5,313.5C 458.531,312.645 459.697,311.978 461,311.5C 463.047,312.609 465.213,313.276 467.5,313.5C 465.722,317.44 462.722,320.273 458.5,322C 443.715,324.874 435.382,318.874 433.5,304C 433.464,301.37 433.964,298.87 435,296.5C 436.736,293.261 439.236,290.927 442.5,289.5C 446.674,287.936 451.007,287.269 455.5,287.5 Z"/></g>
<g><path style="opacity:1" fill="#787878" d="M 547.5,288.5 C 545.167,288.5 542.833,288.5 540.5,288.5C 540.629,290.216 540.962,291.883 541.5,293.5C 539.72,292.01 539.054,290.01 539.5,287.5C 542.385,287.194 545.052,287.527 547.5,288.5 Z"/></g>
<g><path style="opacity:1" fill="#7c7c7c" d="M 563.5,288.5 C 565.948,287.527 568.615,287.194 571.5,287.5C 571.784,289.415 571.451,291.081 570.5,292.5C 570.5,291.167 570.5,289.833 570.5,288.5C 568.167,288.5 565.833,288.5 563.5,288.5 Z"/></g>
<g><path style="opacity:1" fill="#101010" d="M 372.5,302.5 C 372.116,304.665 372.783,306.332 374.5,307.5C 376.217,306.332 376.884,304.665 376.5,302.5C 377.931,297.527 379.931,292.86 382.5,288.5C 384.833,288.5 387.167,288.5 389.5,288.5C 389.371,290.216 389.038,291.883 388.5,293.5C 383.253,307.4 378.087,321.4 373,335.5C 370.599,336.602 368.099,336.769 365.5,336C 364.446,334.612 364.28,333.112 365,331.5C 366.673,327.315 368.506,323.149 370.5,319C 366.366,308.563 362.366,298.063 358.5,287.5C 361.448,287.223 364.281,287.556 367,288.5C 369.134,293.072 370.967,297.739 372.5,302.5 Z"/></g>
<g><path style="opacity:1" fill="#a6a6a6" d="M 382.5,288.5 C 385.287,287.523 388.287,287.19 391.5,287.5C 391.539,290.089 390.539,292.089 388.5,293.5C 389.038,291.883 389.371,290.216 389.5,288.5C 387.167,288.5 384.833,288.5 382.5,288.5 Z"/></g>
<g><path style="opacity:1" fill="#080808" d="M 404.5,288.5 C 404.804,290.796 405.804,291.129 407.5,289.5C 411.099,288.656 414.766,288.323 418.5,288.5C 421.775,290.273 424.609,292.607 427,295.5C 428.381,304.432 428.881,313.432 428.5,322.5C 425.5,322.5 422.5,322.5 419.5,322.5C 419.666,315.159 419.5,307.826 419,300.5C 416.774,296.139 413.274,294.639 408.5,296C 406.951,297.214 405.785,298.714 405,300.5C 404.5,307.826 404.334,315.159 404.5,322.5C 401.833,322.5 399.167,322.5 396.5,322.5C 396.5,311.167 396.5,299.833 396.5,288.5C 399.167,288.5 401.833,288.5 404.5,288.5 Z"/></g>
<g><path style="opacity:1" fill="#505050" d="M 418.5,288.5 C 414.766,288.323 411.099,288.656 407.5,289.5C 407.611,288.883 407.944,288.383 408.5,288C 412.027,287.192 415.36,287.359 418.5,288.5 Z"/></g>
<g><path style="opacity:1" fill="#090909" d="M 482.5,288.5 C 483.472,290.493 484.805,290.826 486.5,289.5C 488.764,288.781 491.097,288.448 493.5,288.5C 493.5,290.5 493.5,292.5 493.5,294.5C 491.901,294.232 490.568,294.566 489.5,295.5C 487.284,296.203 485.451,297.536 484,299.5C 483.5,307.159 483.334,314.826 483.5,322.5C 480.833,322.5 478.167,322.5 475.5,322.5C 475.5,311.167 475.5,299.833 475.5,288.5C 477.833,288.5 480.167,288.5 482.5,288.5 Z"/></g>
<g><path style="opacity:1" fill="#0e0e0e" d="M 524.5,288.5 C 527.167,288.5 529.833,288.5 532.5,288.5C 532.5,299.833 532.5,311.167 532.5,322.5C 531.627,329.877 527.627,334.71 520.5,337C 515.98,337.814 511.646,337.647 507.5,336.5C 507.027,335.094 506.027,334.427 504.5,334.5C 502.188,332.854 500.188,330.854 498.5,328.5C 499.278,326.055 500.945,324.722 503.5,324.5C 505.944,325.767 508.277,327.267 510.5,329C 517.099,330.866 521.765,328.7 524.5,322.5C 522.833,321.334 521.166,321.334 519.5,322.5C 515.131,322.533 510.798,322.2 506.5,321.5C 495.871,314.564 493.704,305.564 500,294.5C 506.388,287.246 514.055,285.58 523,289.5C 523.765,289.43 524.265,289.097 524.5,288.5 Z"/></g>
<g><path style="opacity:1" fill="#0d0d0d" d="M 547.5,288.5 C 548.338,288.842 548.672,289.508 548.5,290.5C 548.896,293.721 550.229,296.388 552.5,298.5C 553.192,301.26 554.192,303.927 555.5,306.5C 557.867,300.207 560.534,294.207 563.5,288.5C 565.833,288.5 568.167,288.5 570.5,288.5C 570.5,289.833 570.5,291.167 570.5,292.5C 568.935,294.509 567.935,296.843 567.5,299.5C 567.5,299.833 567.5,300.167 567.5,300.5C 565.935,302.509 564.935,304.843 564.5,307.5C 562.864,311.368 561.531,315.368 560.5,319.5C 557.789,324.622 555.455,329.955 553.5,335.5C 551.076,335.808 548.743,335.474 546.5,334.5C 547.946,332.382 548.613,330.049 548.5,327.5C 549.015,325.106 549.681,322.772 550.5,320.5C 551.794,318.32 551.461,316.32 549.5,314.5C 546.833,307.5 544.167,300.5 541.5,293.5C 540.962,291.883 540.629,290.216 540.5,288.5C 542.833,288.5 545.167,288.5 547.5,288.5 Z"/></g>
<g><path style="opacity:1" fill="#3a3a3a" d="M 489.5,295.5 C 490.568,294.566 491.901,294.232 493.5,294.5C 493.5,292.5 493.5,290.5 493.5,288.5C 491.097,288.448 488.764,288.781 486.5,289.5C 486.611,288.883 486.944,288.383 487.5,288C 489.81,287.503 492.143,287.337 494.5,287.5C 494.5,290.167 494.5,292.833 494.5,295.5C 492.833,295.5 491.167,295.5 489.5,295.5 Z"/></g>
<g><path style="opacity:1" fill="#343434" d="M 482.5,288.5 C 480.167,288.5 477.833,288.5 475.5,288.5C 475.5,299.833 475.5,311.167 475.5,322.5C 474.505,311.012 474.172,299.345 474.5,287.5C 477.385,287.194 480.052,287.527 482.5,288.5 Z"/></g>
<g><path style="opacity:1" fill="#808080" d="M 221.5,285.5 C 221.59,288.152 220.924,290.485 219.5,292.5C 219.41,289.848 220.076,287.515 221.5,285.5 Z"/></g>
<g><path style="opacity:1" fill="#7d7d7d" d="M 548.5,290.5 C 550.771,292.612 552.104,295.279 552.5,298.5C 550.229,296.388 548.896,293.721 548.5,290.5 Z"/></g>
<g><path style="opacity:1" fill="#666666" d="M 293.5,291.5 C 294.906,291.973 295.573,292.973 295.5,294.5C 294.094,294.027 293.427,293.027 293.5,291.5 Z"/></g>
<g><path style="opacity:1" fill="#4a4a4a" d="M 404.5,288.5 C 401.833,288.5 399.167,288.5 396.5,288.5C 396.5,299.833 396.5,311.167 396.5,322.5C 395.505,311.012 395.172,299.345 395.5,287.5C 398.713,287.19 401.713,287.523 404.5,288.5 Z"/></g>
<g><path style="opacity:1" fill="#7b7b7b" d="M 454.5,295.5 C 451.763,295.401 449.096,295.735 446.5,296.5C 447.492,294.974 448.992,294.307 451,294.5C 452.385,294.514 453.551,294.848 454.5,295.5 Z"/></g>
<g><path style="opacity:1" fill="#3b3b3b" d="M 524.5,288.5 C 527.287,287.523 530.287,287.19 533.5,287.5C 533.828,299.345 533.495,311.012 532.5,322.5C 532.5,311.167 532.5,299.833 532.5,288.5C 529.833,288.5 527.167,288.5 524.5,288.5 Z"/></g>
<g><path style="opacity:1" fill="#a6a6a6" d="M 570.5,292.5 C 570.834,295.491 569.834,297.824 567.5,299.5C 567.935,296.843 568.935,294.509 570.5,292.5 Z"/></g>
<g><path style="opacity:1" fill="#e7e7e7" d="M 454.5,295.5 C 457.646,296.31 459.313,298.31 459.5,301.5C 454.167,301.5 448.833,301.5 443.5,301.5C 443.273,299.067 444.273,297.401 446.5,296.5C 449.096,295.735 451.763,295.401 454.5,295.5 Z"/></g>
<g><path style="opacity:1" fill="#b8b8b8" d="M 519.5,297.5 C 516.5,297.5 513.5,297.5 510.5,297.5C 511.492,295.974 512.992,295.307 515,295.5C 517.008,295.307 518.508,295.974 519.5,297.5 Z"/></g>
<g><path style="opacity:1" fill="#545454" d="M 230.5,297.5 C 229.539,299.265 229.205,301.265 229.5,303.5C 228.2,300.976 228.2,298.309 229.5,295.5C 230.298,295.957 230.631,296.624 230.5,297.5 Z"/></g>
<g><path style="opacity:1" fill="#404040" d="M 306.5,286.5 C 307.268,287.263 307.768,288.263 308,289.5C 308.82,296.014 308.653,302.347 307.5,308.5C 307.683,301.132 307.35,293.799 306.5,286.5 Z"/></g>
<g><path style="opacity:1" fill="#f1f1f1" d="M 510.5,297.5 C 513.5,297.5 516.5,297.5 519.5,297.5C 521.752,297.916 523.252,299.249 524,301.5C 524.987,310.844 520.821,315.344 511.5,315C 506.847,311.212 505.347,306.378 507,300.5C 507.422,298.574 508.589,297.574 510.5,297.5 Z"/></g>
<g><path style="opacity:1" fill="#3c3c3c" d="M 295.5,294.5 C 296.776,296.562 297.61,298.896 298,301.5C 298.497,299.19 298.663,296.857 298.5,294.5C 299.477,297.287 299.81,300.287 299.5,303.5C 298.5,303.5 297.5,303.5 296.5,303.5C 296.296,300.482 295.963,297.482 295.5,294.5 Z"/></g>
<g><path style="opacity:1" fill="#7a7a7a" d="M 335.5,301.5 C 337.027,301.427 338.027,302.094 338.5,303.5C 336.973,303.573 335.973,302.906 335.5,301.5 Z"/></g>
<g><path style="opacity:1" fill="#a9a9a9" d="M 567.5,300.5 C 567.834,303.491 566.834,305.824 564.5,307.5C 564.935,304.843 565.935,302.509 567.5,300.5 Z"/></g>
<g><path style="opacity:1" fill="#505050" d="M 372.5,302.5 C 373.158,303.398 373.824,304.398 374.5,305.5C 375.176,304.398 375.842,303.398 376.5,302.5C 376.884,304.665 376.217,306.332 374.5,307.5C 372.783,306.332 372.116,304.665 372.5,302.5 Z"/></g>
<g><path style="opacity:1" fill="#4d4d4d" d="M 468.5,298.5 C 469.479,301.625 469.813,304.958 469.5,308.5C 460.833,308.5 452.167,308.5 443.5,308.5C 451.65,307.507 459.983,307.174 468.5,307.5C 468.5,304.5 468.5,301.5 468.5,298.5 Z"/></g>
<g><path style="opacity:1" fill="#616161" d="M 229.5,305.5 C 230.871,307.936 231.871,310.603 232.5,313.5C 230.345,311.383 229.345,308.716 229.5,305.5 Z"/></g>
<g><path style="opacity:1" fill="#808080" d="M 220.5,309.5 C 221.871,311.936 222.871,314.603 223.5,317.5C 221.345,315.383 220.345,312.716 220.5,309.5 Z"/></g>
<g><path style="opacity:1" fill="#777777" d="M 307.5,309.5 C 307.655,312.716 306.655,315.383 304.5,317.5C 305.129,314.603 306.129,311.936 307.5,309.5 Z"/></g>
<g><path style="opacity:1" fill="#959595" d="M 252.5,311.5 C 257.015,312.982 261.681,313.648 266.5,313.5C 263.36,314.641 260.027,314.808 256.5,314C 254.934,313.392 253.6,312.558 252.5,311.5 Z"/></g>
<g><path style="opacity:1" fill="#535353" d="M 457.5,313.5 C 457.389,314.117 457.056,314.617 456.5,315C 453.633,315.801 450.966,315.634 448.5,314.5C 451.57,314.632 454.57,314.299 457.5,313.5 Z"/></g>
<g><path style="opacity:1" fill="#b6b6b6" d="M 564.5,307.5 C 564.534,312.058 563.2,316.058 560.5,319.5C 561.531,315.368 562.864,311.368 564.5,307.5 Z"/></g>
<g><path style="opacity:1" fill="#878787" d="M 549.5,314.5 C 551.461,316.32 551.794,318.32 550.5,320.5C 549.85,318.565 549.517,316.565 549.5,314.5 Z"/></g>
<g><path style="opacity:1" fill="#636363" d="M 506.5,321.5 C 510.798,322.2 515.131,322.533 519.5,322.5C 517.866,323.161 516.033,323.494 514,323.5C 511.134,323.7 508.634,323.033 506.5,321.5 Z"/></g>
<g><path style="opacity:1" fill="#505050" d="M 277.5,330.5 C 275.967,332.245 273.967,333.245 271.5,333.5C 273.033,331.755 275.033,330.755 277.5,330.5 Z"/></g>
<g><path style="opacity:1" fill="#8a8a8a" d="M 250.5,331.5 C 256.711,333.101 263.044,333.768 269.5,333.5C 262.942,335.174 256.609,334.508 250.5,331.5 Z"/></g>
<g><path style="opacity:1" fill="#7c7c7c" d="M 504.5,334.5 C 506.027,334.427 507.027,335.094 507.5,336.5C 505.973,336.573 504.973,335.906 504.5,334.5 Z"/></g>
<g><path style="opacity:1" fill="#585858" d="M 548.5,327.5 C 548.613,330.049 547.946,332.382 546.5,334.5C 548.743,335.474 551.076,335.808 553.5,335.5C 551.052,336.473 548.385,336.806 545.5,336.5C 545.528,333.084 546.528,330.084 548.5,327.5 Z"/></g>
<g><path style="opacity:1" fill="#999999" d="M 283.5,339.5 C 281.967,341.245 279.967,342.245 277.5,342.5C 279.033,340.755 281.033,339.755 283.5,339.5 Z"/></g>
<g><path style="opacity:1" fill="#a4a4a4" d="M 275.5,342.5 C 275.082,343.222 274.416,343.722 273.5,344C 267.319,344.819 261.319,344.653 255.5,343.5C 262.202,343.664 268.869,343.331 275.5,342.5 Z"/></g>
</svg>
